<svg width="600" height="600" viewBox="0 0 600 600" fill="none" xmlns="http://www.w3.org/2000/svg">
<g clip-path="url(#clip0_1743_2912)">
<rect width="600" height="600" rx="300" fill="#83BFFF"/>
<path fill-rule="evenodd" clip-rule="evenodd" d="M373.065 239.783V250.553C373.065 254.107 376.668 256.527 379.957 255.181L476.683 215.628C480.826 213.934 480.826 208.066 476.683 206.372L379.957 166.819C376.668 165.473 373.065 167.893 373.065 171.447V182.217C373.065 184.978 370.826 187.217 368.065 187.217H276C285.329 207.355 284.765 217.631 276 234.783H368.065C370.826 234.783 373.065 237.022 373.065 239.783Z" fill="#FEF050"/>
<path d="M276 234.783C284.765 217.631 285.329 207.355 276 187.217H215C212.239 187.217 210 189.455 210 192.217V229.783C210 232.545 212.239 234.783 215 234.783H276Z" fill="#FED063"/>
<path fill-rule="evenodd" clip-rule="evenodd" d="M225.935 416.783V427.553C225.935 431.107 222.332 433.527 219.043 432.181L122.317 392.628C118.174 390.934 118.174 385.066 122.317 383.372L219.043 343.819C222.332 342.473 225.935 344.893 225.935 348.447V359.217C225.935 361.978 228.174 364.217 230.935 364.217H323C313.671 384.355 314.235 394.631 323 411.783H230.935C228.174 411.783 225.935 414.022 225.935 416.783Z" fill="#5E81FF"/>
<path d="M323 411.783C314.235 394.631 313.671 384.355 323 364.217H384C386.761 364.217 389 366.455 389 369.217V406.783C389 409.545 386.761 411.783 384 411.783H323Z" fill="#5578F7"/>
<path d="M186 286C227.421 286 261 252.421 261 211C261 207.875 260.809 204.794 260.438 201.769C219.462 286 120.063 246.769 113.289 192.538C111.794 198.444 111 204.629 111 211C111 252.421 144.579 286 186 286Z" fill="#F35370"/>
<path fill-rule="evenodd" clip-rule="evenodd" d="M186 136C150.949 136 121.514 160.044 113.289 192.538C120.063 246.769 219.462 286 260.438 201.769C255.888 164.703 224.296 136 186 136ZM229.269 175.231C225.231 168.308 208.5 156.192 201 155.038C193.5 153.885 193.5 159.077 199.269 161.385C205.038 163.692 215.409 169.686 223.5 181.577C227.948 187.455 233.308 182.154 229.269 175.231Z" fill="#FC5E74"/>
<path d="M201 155.038C208.5 156.192 225.231 168.308 229.269 175.231C233.308 182.154 227.948 187.455 223.5 181.577C215.409 169.686 205.038 163.692 199.269 161.385C193.5 159.077 193.5 153.885 201 155.038Z" fill="#FB949F"/>
<path d="M413 463C454.421 463 488 429.421 488 388C488 384.875 487.809 381.794 487.438 378.769C446.462 463 347.063 423.769 340.289 369.538C338.794 375.444 338 381.629 338 388C338 429.421 371.579 463 413 463Z" fill="#6B26BD"/>
<path fill-rule="evenodd" clip-rule="evenodd" d="M413 313C377.949 313 348.514 337.044 340.289 369.538C347.063 423.769 446.462 463 487.438 378.769C482.888 341.703 451.296 313 413 313ZM456.269 352.231C452.231 345.308 435.5 333.192 428 332.038C420.5 330.885 420.5 336.077 426.269 338.385C432.038 340.692 442.409 346.686 450.5 358.577C454.948 364.455 460.308 359.154 456.269 352.231Z" fill="#7631C9"/>
<path d="M428 332.038C435.5 333.192 452.231 345.308 456.269 352.231C460.308 359.154 454.948 364.455 450.5 358.577C442.409 346.686 432.038 340.692 426.269 338.385C420.5 336.077 420.5 330.885 428 332.038Z" fill="#944CDC"/>
<path d="M338 497H453.5" stroke="#DEF0FF" stroke-width="10" stroke-linecap="round"/>
<path d="M137 83L307 83" stroke="#DEF0FF" stroke-width="10" stroke-linecap="round"/>
<path d="M89 463H154" stroke="#DEF0FF" stroke-width="10" stroke-linecap="round"/>
<path d="M338 516H396" stroke="#DEF0FF" stroke-width="10" stroke-linecap="round"/>
<path d="M89 286V311M89 336V311M64 311H89M114 311H89" stroke="white" stroke-width="11" stroke-linecap="round" stroke-linejoin="round"/>
<path d="M540 326V351M540 376V351M515 351H540M565 351H540" stroke="white" stroke-width="11" stroke-linecap="round" stroke-linejoin="round"/>
<path d="M489 136V148.5M489 161V148.5M474 148.5H489M504 148.5H489" stroke="white" stroke-width="11" stroke-linecap="round" stroke-linejoin="round"/>
</g>
<defs>
<clipPath id="clip0_1743_2912">
<rect width="600" height="600" rx="300" fill="white"/>
</clipPath>
</defs>
</svg>
