<svg width="600" height="600" viewBox="0 0 600 600" fill="none" xmlns="http://www.w3.org/2000/svg">
<g clip-path="url(#clip0_1743_2892)">
<rect width="600" height="600" rx="300" fill="#83BFFF"/>
<path d="M159.432 371.374C154.015 391.182 158.4 396.095 177.898 395.38C200.082 403.527 90.532 465.119 93.5665 444.479C102.84 410.046 160.004 342.382 159.432 371.374Z" fill="#F8E598"/>
<path d="M170.48 304.026C199.332 276.019 224.37 251.633 247.342 230.55C177.166 218.487 156.353 243.473 114.421 279.791C108.796 287.125 110.389 290.21 118.13 294.705L170.48 304.026Z" fill="#662ED1"/>
<path d="M335.942 345.734C308.783 364.053 278.735 382.317 245.81 401.957L245.731 456.92C247.391 466.992 249.734 469.56 257.702 466.06C316.904 423.39 337.337 397.527 335.942 345.734Z" fill="#662ED1"/>
<path d="M219.754 368.084C257.677 347.054 301.873 313.898 304.697 290.832C305.206 286.675 304.371 282.845 301.912 279.474C285.701 257.239 232.043 300.192 196.891 338.362C185.65 350.568 176.302 362.285 170.676 371.224C165.91 378.797 163.816 384.377 165.505 386.573C167.137 389.016 173.118 388.433 181.748 385.619C191.744 382.358 205.293 376.102 219.754 368.084Z" fill="#662ED1"/>
<path d="M197.314 405.854C210.842 416.357 224.877 413.205 245.81 401.957L219.754 368.084C205.293 376.102 191.744 382.358 181.748 385.619L197.314 405.854Z" fill="#4B2AA9"/>
<path d="M170.48 304.026C156.372 323.319 150.729 337.067 154.521 350.222L170.676 371.224C176.302 362.285 185.65 350.568 196.891 338.362L170.48 304.026Z" fill="#4B2AA9"/>
<path d="M463.617 224.527C448.479 216.913 436.623 209.663 427.198 201.424C392.51 233.599 356.24 258.659 304.697 290.832C301.873 313.898 257.677 347.054 219.754 368.084L245.81 401.957C278.735 382.317 308.783 364.053 335.942 345.734C389.952 309.302 432.538 272.651 463.617 224.527Z" fill="#FDCF6D"/>
<path d="M463.617 224.527C480.361 186.237 500.673 144.382 494.667 128.134C470.494 157.825 449.163 181.051 427.198 201.424C436.623 209.663 448.479 216.913 463.617 224.527Z" fill="#EA586B"/>
<path d="M393.857 133.838C341.827 151.242 300.014 182.21 247.342 230.55C224.37 251.633 199.332 276.019 170.48 304.026L196.891 338.362C232.043 300.192 285.701 257.239 301.912 279.474C304.371 282.845 305.206 286.675 304.697 290.832C356.24 258.659 392.51 233.599 427.198 201.424C409.168 185.664 400.036 166.289 393.857 133.838Z" fill="#FFE56C"/>
<path d="M494.667 128.134C490.649 117.984 453.839 125.396 393.857 133.838C400.036 166.289 409.168 185.664 427.198 201.424C449.163 181.051 470.494 157.825 494.667 128.134Z" fill="#FF656D"/>
<path d="M409.977 383.5H507.023" stroke="#DEF0FF" stroke-width="10" stroke-linecap="round"/>
<path d="M449 412H507" stroke="#DEF0FF" stroke-width="10" stroke-linecap="round"/>
<path d="M156 153H214" stroke="#DEF0FF" stroke-width="10" stroke-linecap="round"/>
<path d="M279.5 58V77M279.5 96V77M259 77H279.5M300 77H279.5" stroke="white" stroke-width="9" stroke-linecap="round"/>
<path d="M77 219V235.5M77 252V235.5M60 235.5H77M94 235.5H77" stroke="white" stroke-width="9" stroke-linecap="round"/>
<path d="M51 395.744L136.195 358" stroke="#F8E598" stroke-width="10" stroke-linecap="round" stroke-dasharray="20 20"/>
<path d="M143 482L185.195 416" stroke="#F8E598" stroke-width="10" stroke-linecap="round" stroke-dasharray="20 20"/>
</g>
<defs>
<clipPath id="clip0_1743_2892">
<rect width="600" height="600" rx="300" fill="white"/>
</clipPath>
</defs>
</svg>
