<svg width="600" height="600" viewBox="0 0 600 600" fill="none" xmlns="http://www.w3.org/2000/svg">
<g clip-path="url(#clip0_1739_2787)">
<rect width="600" height="600" rx="300" fill="#83BFFF"/>
<path d="M299 176.5V73C299 70.2386 301.239 68 304 68H378C380.761 68 383 70.2386 383 73V176.5C383 179.261 385.239 181.5 388 181.5H411.608C416.107 181.5 418.317 186.978 415.077 190.1L344.47 258.156C342.533 260.022 339.467 260.022 337.53 258.156L266.922 190.1C263.683 186.978 265.893 181.5 270.392 181.5H294C296.761 181.5 299 179.261 299 176.5Z" fill="#FEF050"/>
<path d="M148 102V127M148 152V127M123 127H148M173 127H148" stroke="white" stroke-width="11" stroke-linecap="round"/>
<path d="M484.5 187V206M484.5 225V206M464 206H484.5M505 206H484.5" stroke="white" stroke-width="9" stroke-linecap="round"/>
<path d="M527 236V250.5M527 265V250.5M512 250.5H527M542 250.5H527" stroke="white" stroke-width="8" stroke-linecap="round"/>
<path d="M64 360C64 364.744 64.303 369.416 64.8907 374C98.1824 371.59 108.873 372 114.5 409.5C120.127 447 144.5 438 162 409.5C179.5 381 171.763 366.097 145 358.5C129.5 353 123.5 324.5 146.5 312.5C181.415 299.462 180.683 279.753 173 251C112.801 251 64 299.801 64 360Z" fill="#6B25BE"/>
<path fill-rule="evenodd" clip-rule="evenodd" d="M244.814 278L240.5 282.5C211.713 311.367 207.5 345 240.5 360C252.412 369.156 256.505 375.086 246.5 391C235.937 408.493 239.177 416.723 256.973 429.5C272.604 410.634 282 386.414 282 360C282 327.309 267.608 297.978 244.814 278Z" fill="#6B25BE"/>
<path d="M66.2145 381.967C76.3783 431.637 120.326 469 173 469C206.785 469 236.979 453.63 256.973 429.5C239.177 416.723 235.937 408.493 246.5 391C256.505 375.086 252.412 369.156 240.5 360C207.5 345 211.713 311.367 240.5 282.5L244.814 278C225.635 261.19 200.508 251 173 251C180.683 279.753 181.415 299.462 146.5 312.5C123.5 324.5 129.5 353 145 358.5C171.763 366.097 179.5 381 162 409.5C144.5 438 120.127 447 114.5 409.5C108.873 372 98.1824 371.59 64.8907 374C65.2353 376.688 65.6778 379.345 66.2145 381.967Z" fill="#607EFF"/>
<path d="M114.5 535.791C165.548 576.006 229.972 600 300 600C376.354 600 446.045 571.476 499 524.502C374.675 452.052 315.967 444.539 226 475.5C184.562 493.34 156.986 510.953 114.5 535.791Z" fill="#5878FC"/>
<path d="M443.554 366.993C432.554 363.993 427.054 369.993 439.554 374.993C452.054 379.993 470.054 396.993 474.554 402.493C479.054 407.993 486.554 403.993 481.554 395.493C476.554 386.993 454.554 369.993 443.554 366.993Z" fill="#FA8D9B"/>
<path fill-rule="evenodd" clip-rule="evenodd" d="M499.555 391.996C489.055 361.494 461.476 345.985 410.555 356.496H405.554H399.555C398.211 356.262 396.877 356.044 395.554 355.842C350.878 349.021 318.153 360.433 304.555 391.996C301.69 398.645 300.249 406.718 300.03 415.5C317.09 487.677 419.054 520 481.554 485.532C507.523 450.406 508.223 417.176 499.555 391.996ZM439.554 374.993C427.054 369.993 432.554 363.993 443.554 366.993C454.554 369.993 476.554 386.993 481.554 395.493C486.554 403.993 479.054 407.993 474.554 402.493C470.054 396.993 452.054 379.993 439.554 374.993Z" fill="#FC5D73"/>
<path d="M404.555 511.997C432.199 518.508 445.105 518.272 461.555 507.997C469.449 500.462 476.066 492.955 481.554 485.532C419.054 520 317.09 487.677 300.03 415.5C299.178 449.637 316.796 494.478 341.055 507.997C371.554 524.993 384.091 520.26 404.555 511.997Z" fill="#F65371"/>
<path d="M472.054 262C426.004 262.902 408.025 274.092 394.923 320C400.144 328.022 404.2 338.303 405.28 350C455.84 335.354 476.021 320.554 472.054 262Z" fill="#6A26BE"/>
<path d="M381.054 305.493C369.554 298 362.554 305.498 372.054 311.493C381.554 317.489 395.202 334.89 395.554 355.842C396.877 356.044 398.211 356.262 399.555 356.496H405.554V354.993C405.524 353.303 405.431 351.637 405.28 350C404.2 338.303 400.144 328.022 394.923 320C390.737 313.568 385.802 308.587 381.054 305.493Z" fill="#551B8F"/>
</g>
<defs>
<clipPath id="clip0_1739_2787">
<rect width="600" height="600" rx="300" fill="white"/>
</clipPath>
</defs>
</svg>

