<svg width="600" height="600" viewBox="0 0 600 600" fill="none" xmlns="http://www.w3.org/2000/svg">
<g clip-path="url(#clip0_1742_2832)">
<rect width="600" height="600" rx="300" fill="#83BFFF"/>
<path d="M114.5 535.791C165.548 576.006 229.972 600 300 600C376.354 600 446.045 571.476 499 524.502C531.096 496.031 557.043 460.783 574.598 421C517.707 391.77 489.572 380.682 454 381.5L396 374.5C347.848 361.304 321.499 360.648 276 374.5C232.656 387.428 216.917 388.41 200.5 381.5H143.5C89.7045 378.833 65.3741 391.016 20.808 410C40.4617 459.843 73.0767 503.157 114.5 535.791Z" fill="#5878FC"/>
<path d="M118.041 194.452H60C57.2386 194.452 55 192.213 55 189.452V165.548C55 162.787 57.2386 160.548 60 160.548H118.041C120.803 160.548 123.041 158.31 123.041 155.548V153.592C123.041 149.549 127.59 147.177 130.905 149.493L165.132 173.401C167.981 175.391 167.981 179.609 165.132 181.599L130.905 205.507C127.59 207.823 123.041 205.451 123.041 201.408V199.452C123.041 196.69 120.803 194.452 118.041 194.452Z" fill="#FC5E73"/>
<path d="M61.8348 231C49.7864 244.011 46.4747 252.645 50.8348 272" stroke="#FBFBFB" stroke-width="4" stroke-linecap="round"/>
<path d="M33.776 244.183C28.1921 261.013 28.7506 270.244 40.7296 286.059" stroke="#FBFBFB" stroke-width="4" stroke-linecap="round"/>
<path d="M128 88V102.5M128 117V102.5M113 102.5H128M143 102.5H128" stroke="white" stroke-width="5" stroke-linecap="round"/>
<path d="M496 202V216.5M496 231V216.5M481 216.5H496M511 216.5H496" stroke="white" stroke-width="5" stroke-linecap="round"/>
<path d="M242 125V134.5M242 144V134.5M232 134.5H242M252 134.5H242" stroke="white" stroke-width="4" stroke-linecap="round"/>
<path d="M391 38V52.5M391 67V52.5M376 52.5H391M406 52.5H391" stroke="white" stroke-width="5" stroke-linecap="round"/>
<path d="M496 125C496 149.853 475.853 170 451 170C426.147 170 406 149.853 406 125C406 100.147 426.147 80 451 80C475.853 80 496 100.147 496 125Z" fill="#FEFFFF"/>
<path d="M462 125C462 131.075 457.075 136 451 136C444.925 136 440 131.075 440 125C440 118.925 444.925 114 451 114C457.075 114 462 118.925 462 125Z" fill="#87A6FF"/>
<path d="M451 114C457.075 114 462 118.925 462 125L468.095 110.524C468.791 108.872 467.128 107.209 465.476 107.905L451 114Z" fill="#87A6FF"/>
<path d="M451 80C428.177 80 409.322 96.9912 406.395 119.014C405.958 122.299 408.686 125 412 125C415.314 125 417.944 122.291 418.531 119.029C421.298 103.654 434.559 92 450.5 92C466.271 92 479.419 103.407 482.377 118.539C483.066 122.062 485.91 125 489.5 125C493.09 125 496.049 122.073 495.537 118.52C492.395 96.7375 473.652 80 451 80Z" fill="#FFD748"/>
<path d="M290.793 109.807H187C184.239 109.807 182 107.569 182 104.807V63.1928C182 60.4313 184.239 58.1928 187 58.1928H290.793C293.555 58.1928 295.793 55.9542 295.793 53.1928V42.1045C295.793 38.1598 300.147 35.7686 303.476 37.8852L369.364 79.7807C372.454 81.7452 372.454 86.2548 369.364 88.2193L303.476 130.115C300.147 132.231 295.793 129.84 295.793 125.896V114.807C295.793 112.046 293.555 109.807 290.793 109.807Z" fill="#FFDE66"/>
<path d="M558.818 299.981C555.697 287.631 552.239 278.428 547.688 271.5C535.249 268.052 529.196 267.908 524.5 279.5C523.191 291.997 523.903 298.245 539.5 302L559.331 303.5L558.818 299.981Z" fill="#FFE56B"/>
<path d="M59.0708 361.655L59.2534 361.751H86C99 358.5 97.5 334.5 86 333.409C74.5 332.318 59.2534 333.409 59.2534 333.409C52.5616 336.422 50.4632 338.577 49.0727 342.856C48.8881 346.679 48.9509 348.981 50.5268 354.484C52.77 358.348 55.0688 359.555 59.0686 361.654L59.0708 361.655Z" fill="#6A27BF"/>
<path d="M71.6147 283.993L62.8578 319C70.7942 324.82 75.7522 325.258 86 318C91.3681 306.373 92.7423 298.74 93.5 283.993C91.5037 275.287 89.3757 271.365 78.0324 271.5C75.9032 275.153 73.8158 279.298 71.6147 283.993Z" fill="#FDBCDC"/>
<path d="M282.86 331.511C284.977 332.583 287.335 333.515 289.982 334.318C299.936 285.637 306.262 253.832 299.946 262.5L282.86 331.511Z" fill="#F44D6F"/>
<path d="M314 268H337.5C343.5 268 342 276.5 336.5 276.5H312.5C307.5 276.5 309 268 314 268Z" fill="#F6526E"/>
<path d="M275.5 361.239L284.5 361.16C286.406 351.784 288.249 342.795 289.982 334.318C287.335 333.515 284.977 332.583 282.86 331.511L275.5 361.239Z" fill="#EC4A6C"/>
<path d="M398.5 253C395.5 235.813 412 226 426.5 230C453.146 249.5 412.5 278 398.5 253Z" fill="#692CD3"/>
<path d="M278 254C289.698 253.797 293.227 250.908 295.5 242L306.518 191.5L212.5 254H278Z" fill="#5B0797"/>
<path d="M307.5 187C307.248 180.695 304.898 178.785 295.5 179H278L179.152 246.205C178.328 251.964 181.904 253.543 190.144 254H212.5L306.518 191.5L307.5 187Z" fill="#6615AC"/>
<path d="M206.5 194L181 240C180.012 242.477 179.394 244.52 179.152 246.205L278 179H227C217.86 180.495 213.184 183.058 206.5 194Z" fill="#5B0498"/>
<path d="M566.09 361.024C576.27 354.484 576.848 340.891 563.909 334.863C563.909 334.863 550.5 333.727 539.5 334.863C537.1 335.111 534.949 336.066 533.189 337.5C526.882 342.641 525.609 353.95 536 361.024H566.09Z" fill="#6A27BF"/>
<path d="M379 179H330C325.243 178.941 322.764 179.393 321 187L311.5 234.5L392 181.621C388.37 179.964 384.286 179.16 379 179Z" fill="#5B0797"/>
<path d="M398.5 253C395.5 235.813 412 226 426.5 230L412.333 204.5L337.5 253H398.5Z" fill="#5B0797"/>
<path d="M123 361.345L132.648 361.239C140.258 314.191 219.451 300.988 217 361.239H228C225.408 283.209 126.653 297.383 123 361.345Z" fill="#6A28BB"/>
<path d="M153.786 246.205L113.791 247.658C95.1853 250.545 86.2938 257.325 78.0324 271.5C89.3757 271.365 91.5037 275.287 93.5 283.993C92.7423 298.74 91.3681 306.373 86 318C75.7522 325.258 70.7942 324.82 62.8578 319L59.2534 333.409C59.2534 333.409 74.5 332.318 86 333.409C97.5 334.5 99 358.5 86 361.751L123 361.345C126.653 297.383 225.408 283.209 228 361.239H275.5L282.86 331.511C281.08 330.609 279.47 329.608 278 328.5C249.623 300.574 232.276 292.431 199 289.5C157.093 290.757 150.529 278.773 153.786 246.205Z" fill="#F1506E"/>
<path d="M299.946 361.024H374.844C375.348 352.198 377.664 344.319 381.287 337.5C333.288 339.327 305.962 339.165 289.982 334.318C288.249 342.795 286.406 351.784 284.5 361.16L299.946 361.024Z" fill="#F1506E"/>
<path d="M374.844 361.024H384.297C391.906 313.977 470.373 300.773 467.922 361.024H479.5C479.201 352.009 477.962 344.119 475.39 337.5C458.774 294.735 400.889 300.616 381.287 337.5C377.664 344.319 375.348 352.198 374.844 361.024Z" fill="#6A28BB"/>
<path d="M479.5 361.024H536C525.609 353.95 526.882 342.641 533.189 337.5H475.39C477.962 344.119 479.201 352.009 479.5 361.024Z" fill="#F1506E"/>
<path fill-rule="evenodd" clip-rule="evenodd" d="M453.146 235.813C427.866 187.871 412.966 159.617 374.844 159H242.499C214.676 159.588 203.108 164.9 190.144 183.708L174.146 212.05L153.786 246.205C150.529 278.773 157.093 290.757 199 289.5C232.276 292.431 249.623 300.574 278 328.5C279.47 329.608 281.08 330.609 282.86 331.511L299.946 262.5C306.262 253.832 299.936 285.637 289.982 334.318C305.962 339.165 333.288 339.327 381.287 337.5C400.889 300.616 458.774 294.735 475.39 337.5H533.189C534.949 336.066 537.1 335.111 539.5 334.863C550.5 333.727 563.909 334.863 563.909 334.863L559.331 303.5L539.5 302C523.903 298.245 523.191 291.997 524.5 279.5C529.196 267.908 535.249 268.052 547.688 271.5C539.675 259.298 528.275 254.151 509.371 251.292L473.012 245.478L455.56 240.391C454.956 239.246 454.358 238.112 453.765 236.989L453.146 235.813ZM337.5 268H314C309 268 307.5 276.5 312.5 276.5H336.5C342 276.5 343.5 268 337.5 268ZM181 240L206.5 194C213.184 183.058 217.86 180.495 227 179H278H295.5C304.898 178.785 307.248 180.695 307.5 187L306.518 191.5L295.5 242C293.227 250.908 289.698 253.797 278 254H212.5H190.144C181.904 253.543 178.328 251.964 179.152 246.205C179.394 244.52 180.012 242.477 181 240ZM322 253C311.953 251.984 308.028 250.38 310 242L311.5 234.5L321 187C322.764 179.393 325.243 178.941 330 179H379C384.286 179.16 388.37 179.964 392 181.621C397.037 183.919 401.202 187.86 406.5 194L412.333 204.5L426.5 230C453.146 249.5 412.5 278 398.5 253H337.5H322Z" fill="#FC5E73"/>
<path d="M420.5 361.024C420.5 350 438.5 349.5 436 361.024C433.5 372.549 420.5 372.049 420.5 361.024Z" fill="#953EE1"/>
<path d="M169 361.024C169 350 187 349.5 184.5 361.024C182 372.549 169 372.049 169 361.024Z" fill="#953EE1"/>
<path fill-rule="evenodd" clip-rule="evenodd" d="M400.5 361.024C407 326.049 456 328.152 453.765 361.024C451.531 393.896 394 396 400.5 361.024ZM420.5 361.024C420.5 350 438.5 349.5 436 361.024C433.5 372.549 420.5 372.049 420.5 361.024Z" fill="#6626B9"/>
<path fill-rule="evenodd" clip-rule="evenodd" d="M467.922 361.024C452.652 427.882 377.026 411.167 384.297 361.024C391.906 313.977 470.373 300.773 467.922 361.024ZM400.5 361.024C407 326.049 456 328.152 453.765 361.024C451.531 393.896 394 396 400.5 361.024Z" fill="#53127F"/>
<path d="M169 361.024C169 350 187 349.5 184.5 361.024C182 372.549 169 372.049 169 361.024Z" fill="#953EE1"/>
<path fill-rule="evenodd" clip-rule="evenodd" d="M149 361.024C155.5 326.049 204.5 328.152 202.265 361.024C200.031 393.896 142.5 396 149 361.024ZM169 361.024C169 350 187 349.5 184.5 361.024C182 372.549 169 372.049 169 361.024Z" fill="#6626B9"/>
<path fill-rule="evenodd" clip-rule="evenodd" d="M217 361.239C207.547 420.829 126.831 415.015 132.648 361.239C140.258 314.191 219.451 300.988 217 361.239ZM149 361.024C155.5 326.049 204.5 328.152 202.265 361.024C200.031 393.896 142.5 396 149 361.024Z" fill="#53127F"/>
<path d="M310 242C308.028 250.38 311.953 251.984 322 253H337.5L412.333 204.5L406.5 194C401.202 187.86 397.037 183.919 392 181.621L311.5 234.5L310 242Z" fill="#6615AD"/>
</g>
<defs>
<clipPath id="clip0_1742_2832">
<rect width="600" height="600" rx="300" fill="white"/>
</clipPath>
</defs>
</svg>
