<svg width="600" height="600" viewBox="0 0 600 600" fill="none" xmlns="http://www.w3.org/2000/svg">
<g clip-path="url(#clip0_1741_2803)">
<rect width="600" height="600" rx="300" fill="#83BFFF"/>
<path d="M261.801 190.716V101C261.801 98.2386 264.04 96 266.801 96H332.199C334.96 96 337.199 98.2386 337.199 101V190.716C337.199 193.477 339.437 195.716 342.199 195.716H361.414C365.939 195.716 368.136 201.247 364.845 204.353L302.931 262.763C301.005 264.58 297.995 264.58 296.069 262.763L234.155 204.353C230.864 201.247 233.061 195.716 237.586 195.716H256.801C259.563 195.716 261.801 193.477 261.801 190.716Z" fill="#FC5E73"/>
<path d="M114.5 535.791C165.548 576.006 229.972 600 300 600C376.354 600 446.045 571.476 499 524.502C515.814 509.587 530.94 492.812 544.057 474.5C500.521 472.36 475.944 471.812 437 452C366.104 416.51 325.532 409.272 251.5 422C185.727 408.007 143.349 418.037 55.9435 474.5C72.4824 497.59 92.2167 518.236 114.5 535.791Z" fill="#5878FC"/>
<path d="M218.064 442.861C214.572 448.181 218.389 455.25 224.752 455.25H375.248C381.612 455.25 385.428 448.181 381.937 442.861L371.2 426.5C312.231 427.671 287.412 418.184 254.967 386.625L218.064 442.861Z" fill="#6B25BD"/>
<path fill-rule="evenodd" clip-rule="evenodd" d="M322.517 352.312C304.933 356.825 295.065 356.9 277.484 352.312L254.967 386.625C287.412 418.184 312.231 427.671 371.2 426.5L322.517 352.312Z" fill="#7631CA"/>
<path d="M306.689 328.192C303.529 323.378 296.471 323.378 293.312 328.192L277.484 352.312C295.065 356.9 304.933 356.825 322.517 352.312L306.689 328.192Z" fill="#66219A"/>
<path d="M75 328C75 335.732 81.268 342 89 342H510C517.732 342 524 335.732 524 328V322.25H506H481.75H457.5H439H377H337H281H264H228H192H141.5H120H98.5H75V328Z" fill="#893ADF"/>
<path d="M457.5 302.5V322.25H481.75V302.5H457.5Z" fill="#893ADF"/>
<path d="M377 302.5V322.25H439V302.5H377Z" fill="#893ADF"/>
<path d="M281 302.5V322.25H337V302.5H281Z" fill="#893ADF"/>
<path d="M264 322.25V302.5H228V322.25H264Z" fill="#893ADF"/>
<path fill-rule="evenodd" clip-rule="evenodd" d="M75 297C75 289.268 81.268 283 89 283H510C517.732 283 524 289.268 524 297V302.5V322.25H506V302.5H481.75H457.5H439H377H337H281H264H228H192H141.5V322.25H120V302.5H98.5V322.25H75V302.5V297Z" fill="#893ADF"/>
<path d="M141.5 302.5V322.25H192V302.5H141.5Z" fill="#893ADF"/>
<path d="M98.5 302.5V322.25H120V302.5H98.5Z" fill="#742CBD"/>
<path d="M192 302.5V322.25H228V302.5H192Z" fill="#742CBD"/>
<path d="M281 322.25V302.5H264V322.25H281Z" fill="#742CBD"/>
<path d="M377 322.25V302.5H337V322.25H377Z" fill="#742CBD"/>
<path d="M457.5 322.25V302.5H439V322.25H457.5Z" fill="#742CBD"/>
<path d="M506 322.25V302.5H481.75V322.25H506Z" fill="#742CBD"/>
<path d="M516 230V244.5M516 259V244.5M501 244.5H516M531 244.5H516" stroke="white" stroke-width="8" stroke-linecap="round"/>
<path d="M121 117V142M121 167V142M96 142H121M146 142H121" stroke="white" stroke-width="11" stroke-linecap="round" stroke-linejoin="round"/>
<path d="M148.5 199V218M148.5 237V218M128 218H148.5M169 218H148.5" stroke="white" stroke-width="9" stroke-linecap="round"/>
<path d="M436 388H551.5" stroke="#DEF0FF" stroke-width="10" stroke-linecap="round"/>
<path d="M370 142L540 142" stroke="#DEF0FF" stroke-width="10" stroke-linecap="round"/>
<path d="M63 407H128" stroke="#DEF0FF" stroke-width="10" stroke-linecap="round"/>
<path d="M436 407H494" stroke="#DEF0FF" stroke-width="10" stroke-linecap="round"/>
<path d="M455 161H486" stroke="#DEF0FF" stroke-width="10" stroke-linecap="round"/>
<path d="M378 161H436" stroke="#DEF0FF" stroke-width="10" stroke-linecap="round"/>
</g>
<defs>
<clipPath id="clip0_1741_2803">
<rect width="600" height="600" rx="300" fill="white"/>
</clipPath>
</defs>
</svg>
